<svg xmlns="http://www.w3.org/2000/svg" width="32" height="20.1" viewBox="0 0 32 20.1"><defs><style>.a{fill:#f4f4f4;}.b{fill:#ccc;}.c{fill:#ffb638;}.c,.d{stroke:#e09200;stroke-linejoin:round;}.d{fill:none;}</style></defs><title>hatena-star-add-button</title><rect class="a" x="0.5" y="0.5" width="31" height="19.11" rx="2.5" ry="2.5"/><path class="b" d="M29,1a2,2,0,0,1,2,2V17.1a2,2,0,0,1-2,2H3a2,2,0,0,1-2-2V3A2,2,0,0,1,3,1H29m0-1H3A3.1,3.1,0,0,0,0,3V17.1a3,3,0,0,0,3,3H29a3,3,0,0,0,3-3V3a3.1,3.1,0,0,0-3-3Z"/><path class="c" d="M12.3,8.3h4l-3.2,2.4,1.3,3.8h-.1L11,12.2,7.7,14.5h0L9,10.7,5.7,8.3H9.8L11,4.4h.1Z"/><line class="d" x1="18" y1="10.6" x2="25" y2="10.6"/><line class="d" x1="21.5" y1="7.1" x2="21.5" y2="14.1"/></svg>